<svg id="Capa_1" enable-background="new 0 0 511.905 511.905" height="512" viewBox="0 0 511.905 511.905" width="512" xmlns="http://www.w3.org/2000/svg"><path d="m300.149 406.853c-4.115.476-7.064 4.197-6.588 8.312.167 1.449.252 2.93.252 4.401 0 20.876-16.984 37.861-37.861 37.861s-37.861-16.984-37.861-37.861 16.984-37.861 37.861-37.861c8.783 0 17.022 2.917 23.828 8.437 3.215 2.608 7.938 2.117 10.549-1.101 2.609-3.217 2.116-7.94-1.101-10.549-9.372-7.601-21.189-11.787-33.276-11.787-29.147 0-52.861 23.713-52.861 52.861s23.713 52.861 52.861 52.861 52.861-23.713 52.861-52.861c0-2.045-.118-4.106-.352-6.125-.476-4.115-4.199-7.073-8.312-6.588z"/><path d="m438.85 217.166c-52.672-39.708-115.447-60.92-181.569-61.359-.192-.015-.387-.022-.583-.022l-.731.009-.761-.009c-.195 0-.389.007-.581.022-66.123.439-128.899 21.651-181.572 61.359-10.238 7.718-16.715 19.462-17.77 32.22-1.051 12.711 3.385 25.305 12.17 34.552 15.725 16.55 41.254 18.705 59.387 5.009 13.988-10.567 29.229-19.401 45.3-26.258 3.81-1.625 5.581-6.032 3.956-9.842-1.625-3.809-6.031-5.58-9.841-3.955-17.192 7.335-33.495 16.784-48.456 28.086-12.038 9.092-29.006 7.644-39.471-3.372-5.93-6.242-8.805-14.404-8.096-22.984.703-8.502 5.022-16.331 11.851-21.479 50.216-37.856 110.094-58.03 173.159-58.34.139-.001.276-.005.413-.013l.312.003.283-.003c.136.008.273.012.412.013 63.065.31 122.943 20.484 173.159 58.34 6.829 5.148 11.148 12.977 11.851 21.479.709 8.58-2.166 16.742-8.096 22.984-10.465 11.015-27.434 12.464-39.47 3.372-40.044-30.25-87.808-46.327-138.177-46.492-18.664.061-37.228 2.359-55.177 6.832-4.019 1.001-6.465 5.071-5.464 9.091s5.072 6.467 9.09 5.464c16.78-4.181 34.14-6.329 51.55-6.386 47.048.154 91.703 15.183 129.136 43.46 7.995 6.04 17.429 8.997 26.827 8.997 11.914 0 23.769-4.753 32.56-14.006 8.786-9.247 13.222-21.841 12.171-34.552-1.056-12.757-7.533-24.502-17.772-32.22z"/><path d="m362.654 290.133c-32.113-19.362-69.009-29.596-106.701-29.596s-74.588 10.234-106.701 29.596c-11.412 6.88-19.309 18.379-21.666 31.55-2.379 13.293 1.089 26.966 9.515 37.513 14.53 18.188 40.6 22.854 60.639 10.853 17.53-10.5 37.66-16.049 58.212-16.049s40.682 5.549 58.212 16.048c7.479 4.479 15.794 6.637 24.041 6.636 13.847-.001 27.491-6.089 36.599-17.489 8.426-10.547 11.894-24.22 9.515-37.513-2.357-13.17-10.254-24.669-21.665-31.549zm.43 59.7c-9.866 12.351-27.583 15.509-41.212 7.347-19.859-11.894-42.654-18.18-65.92-18.18s-46.061 6.286-65.919 18.18c-13.627 8.163-31.346 5.004-41.212-7.347-5.729-7.171-8.087-16.468-6.469-25.508 1.596-8.917 6.934-16.697 14.645-21.347 29.775-17.952 63.994-27.441 98.956-27.441s69.181 9.489 98.956 27.441c7.711 4.649 13.049 12.43 14.645 21.347 1.617 9.04-.741 18.337-6.47 25.508z"/><path d="m511.3 141.118c-2.137-13.856-9.667-25.907-21.204-33.93-19.395-13.488-41.816-25.391-66.639-35.379-3.841-1.545-8.211.315-9.757 4.159-1.546 3.843.316 8.211 4.159 9.757 23.779 9.567 45.202 20.932 63.673 33.778 8.132 5.656 13.439 14.144 14.944 23.901 1.493 9.685-.981 19.291-6.967 27.049-11.554 14.975-32.879 18.203-48.55 7.349-23.976-16.607-54.648-30.319-88.703-39.653-31.806-8.719-65.107-13.327-96.304-13.327s-64.498 4.608-96.304 13.327c-34.054 9.334-64.727 23.046-88.703 39.653-15.67 10.854-36.996 7.625-48.55-7.349-5.986-7.758-8.46-17.364-6.967-27.048 1.504-9.757 6.812-18.246 14.944-23.901 57.674-40.109 144.111-65.025 225.58-65.025 42.807 0 87.761 6.898 130.002 19.95 3.957 1.222 8.157-.994 9.379-4.952 1.223-3.958-.994-8.157-4.952-9.38-43.656-13.488-90.141-20.618-134.43-20.618-84.369 0-174.088 25.945-234.144 67.711-11.537 8.023-19.067 20.073-21.204 33.93-2.125 13.784 1.396 27.456 9.916 38.498 9.897 12.827 24.817 19.604 39.979 19.604 10.017 0 20.141-2.959 28.988-9.087 44.125-30.563 113.392-50.312 176.465-50.312s132.34 19.749 176.465 50.312c22.236 15.402 52.532 10.783 68.967-10.517 8.521-11.045 12.042-24.716 9.917-38.5z"/></svg>