<svg height="512pt" viewBox="0 -106 512.001 512" width="512pt" xmlns="http://www.w3.org/2000/svg"><path d="m333.457031 206.964844h-.28125c-4.144531 0-7.5-3.355469-7.5-7.496094s3.355469-7.5 7.5-7.5h.28125c4.140625 0 7.5 3.359375 7.5 7.5s-3.359375 7.496094-7.5 7.496094zm0 0"/><path d="m370.136719 206.964844h-.28125c-4.140625 0-7.5-3.355469-7.5-7.496094s3.359375-7.5 7.5-7.5h.28125c4.140625 0 7.5 3.359375 7.5 7.5s-3.359375 7.496094-7.5 7.496094zm0 0"/><path d="m449.652344 168.101562h-119c-4.140625 0-7.5-3.359374-7.5-7.5 0-4.140624 3.359375-7.496093 7.5-7.496093h119c4.140625 0 7.496094 3.355469 7.496094 7.496093 0 4.140626-3.355469 7.5-7.496094 7.5zm0 0"/><path d="m449.652344 128.925781h-119c-4.140625 0-7.5-3.359375-7.5-7.5s3.359375-7.496093 7.5-7.496093h119c4.140625 0 7.496094 3.355468 7.496094 7.496093s-3.355469 7.5-7.496094 7.5zm0 0"/><path d="m449.652344 89.75h-119c-4.140625 0-7.5-3.359375-7.5-7.5s3.359375-7.496094 7.5-7.496094h119c4.140625 0 7.496094 3.355469 7.496094 7.496094s-3.355469 7.5-7.496094 7.5zm0 0"/><path d="m407.132812 206.964844h-.285156c-4.140625 0-7.496094-3.355469-7.496094-7.496094s3.355469-7.5 7.496094-7.5h.285156c4.140626 0 7.496094 3.359375 7.496094 7.5s-3.355468 7.496094-7.496094 7.496094zm0 0"/><path d="m443.839844 206.652344h-.285156c-4.140626 0-7.496094-3.355469-7.496094-7.496094s3.355468-7.5 7.496094-7.5h.285156c4.140625 0 7.5 3.359375 7.5 7.5s-3.359375 7.496094-7.5 7.496094zm0 0"/><path d="m470.824219 27.527344h-99.324219c-4.140625 0-7.5 3.355468-7.5 7.496094 0 4.140624 3.359375 7.5 7.5 7.5h99.324219c14.4375 0 26.179687 11.742187 26.179687 26.175781v154.070312c0 14.4375-11.742187 26.179688-26.179687 26.179688h-429.679688c-14.417969 0-26.148437-11.742188-26.148437-26.179688v-154.070312c0-14.433594 11.730468-26.175781 26.148437-26.175781h30.472657c-16.300782 19.925781-26.09375 45.371093-26.09375 73.0625 0 63.71875 51.851562 115.558593 115.585937 115.558593 30.441406 0 59.171875-11.722656 80.90625-33.011719 2.957031-2.898437 3.003906-7.644531.105469-10.601562-2.894532-2.960938-7.644532-3.007812-10.601563-.109375-18.910156 18.527344-43.914062 28.726563-70.410156 28.726563-55.464844 0-100.589844-45.113282-100.589844-100.5625 0-55.464844 45.125-100.589844 100.589844-100.589844s100.585937 45.125 100.585937 100.589844c0 16.265624-3.972656 32.429687-11.496093 46.746093-1.925781 3.664063-.515625 8.199219 3.148437 10.125 3.664063 1.925781 8.199219.515625 10.125-3.148437 8.648438-16.457032 13.21875-35.035156 13.21875-53.722656 0-27.691407-9.789062-53.136719-26.089844-73.0625h86.257813c4.140625 0 7.496094-3.359376 7.496094-7.5 0-4.140626-3.355469-7.496094-7.496094-7.496094h-100.972656c-20.171875-17.15625-46.285157-27.527344-74.777344-27.527344s-54.605469 10.371094-74.777344 27.527344h-45.1875c-22.6875 0-41.144531 18.46875-41.144531 41.171875v154.070312c0 22.703125 18.457031 41.175781 41.144531 41.175781h10.644531v22.464844c0 7.105469 5.769532 12.882813 12.855469 12.882813h74.128907c7.105468 0 12.882812-5.777344 12.882812-12.882813v-22.464844h212.035156v22.464844c0 7.105469 5.777344 12.882813 12.882813 12.882813h74.125c7.089843 0 12.855469-5.777344 12.855469-12.882813v-22.464844h7.273437c22.703125 0 41.171875-18.472656 41.171875-41.175781v-154.070312c0-22.703125-18.472656-41.171875-41.175781-41.171875zm-334.164063 256.769531h-69.875v-20.351563h69.875zm311.898438 0h-69.875v-20.351563h69.875zm0 0"/><path d="m161.109375 29.707031c-47.335937 0-85.847656 38.527344-85.847656 85.878907 0 47.339843 38.511719 85.851562 85.847656 85.851562s85.847656-38.511719 85.847656-85.851562c0-47.351563-38.511719-85.878907-85.847656-85.878907zm0 156.734375c-39.070313 0-70.851563-31.785156-70.851563-70.855468 0-39.085938 31.78125-70.882813 70.851563-70.882813 39.066406 0 70.851563 31.796875 70.851563 70.882813 0 39.070312-31.785157 70.855468-70.851563 70.855468zm0 0"/><path d="m161.109375 62.363281c-4.140625 0-7.5 3.359375-7.5 7.5s3.359375 7.496094 7.5 7.496094c21.078125 0 38.226563 17.148437 38.226563 38.226563 0 4.140624 3.355468 7.5 7.496093 7.5s7.496094-3.359376 7.496094-7.5c.003906-29.347657-23.871094-53.222657-53.21875-53.222657zm0 0"/></svg>