<svg id="Capa_1" enable-background="new 0 0 528 528" height="512" viewBox="0 0 528 528" width="512" xmlns="http://www.w3.org/2000/svg"><path d="m363 230.999c0-54.592-44.408-99-99-99s-99 44.408-99 99 44.408 99 99 99 99-44.408 99-99zm-165 0c0-36.4 29.6-66 66-66s66 29.6 66 66-29.6 66-66 66-66-29.6-66-66z"/><path d="m297 230.999c0-18.226-14.774-33-33-33-3.275 0-6.25.975-9.237 1.863 5.42 2.703 9.237 8.167 9.237 14.637 0 9.112-7.388 16.5-16.5 16.5-6.469 0-11.934-3.817-14.637-9.237-.888 2.987-1.863 5.96-1.863 9.237 0 18.224 14.774 33 33 33s33-14.776 33-33z"/><path d="m296.216 459.484c112.141-15.757 198.784-112.068 198.784-228.484 0-127.375-103.625-231-231-231s-231 103.625-231 231c0 114.773 84.222 209.99 194.056 227.761-20.417 16.697-52.958 36.239-95.056 36.239h-66v33h396v-33h-66c-51.714 0-82.683-19.358-99.784-35.516zm-230.216-228.484c0-109.183 88.816-198 198-198s198 88.816 198 198-88.816 198-198 198-198-88.817-198-198zm168.019 264c11.658-8.034 21.332-16.268 28.353-23.155 5.954 7.05 14.403 15.227 25.111 23.155z"/></svg>